<?xml version="1.0" encoding="utf-8"?>
<!-- Generator: Adobe Illustrator 27.3.1, SVG Export Plug-In . SVG Version: 6.00 Build 0)  -->
<svg version="1.1" id="Capa_1" xmlns="http://www.w3.org/2000/svg" xmlns:xlink="http://www.w3.org/1999/xlink" x="0px" y="0px"
	 viewBox="0 0 841.89 340.16" style="enable-background:new 0 0 841.89 340.16;" xml:space="preserve">
<style type="text/css">
	.st0{fill:#00A2C8;}
	.st1{fill:#FFFFFF;}
	.st2{fill:#9BCC78;}
	.st3{fill:#699953;}
</style>
<g id="XMLID_6_">
	<g id="XMLID_241_">
		<g id="XMLID_260_">
			<path id="XMLID_264_" class="st0" d="M464.65,219.71v7.51h-1.68v-21.67c3.16,0,6.36,0,9.52,0c9.4,0,9.4,14.16,0,14.16H464.65z
				 M464.65,207.09v11.1h7.84c7.2,0,7.2-11.1,0-11.1H464.65z"/>
			<path id="XMLID_261_" class="st0" d="M465.85,228.42h-4.08v-24.1h10.72c5.43,0,8.26,4.18,8.26,8.3c0,4.14-2.83,8.3-8.26,8.3
				h-6.64V228.42z M465.85,216.98h6.64c1.3,0,2.39-0.45,3.13-1.32c0.68-0.77,1.06-1.87,1.06-3.02c0-2.17-1.3-4.36-4.19-4.36h-6.64
				V216.98z"/>
		</g>
		<g id="XMLID_256_">
			<path id="XMLID_258_" class="st0" d="M489.33,215.53h12.69v1.52h-12.69v8.55h13.68v1.62h-15.32v-21.67h14.95v1.55h-13.31V215.53z
				"/>
			<polygon id="XMLID_257_" class="st0" points="504.22,228.42 486.47,228.42 486.47,204.32 503.84,204.32 503.84,208.33 
				490.54,208.33 490.54,214.33 503.22,214.33 503.22,218.26 490.54,218.26 490.54,224.39 504.22,224.39 			"/>
		</g>
		<g id="XMLID_249_">
			<path id="XMLID_253_" class="st0" d="M528.46,227.22h-2.2l-7.5-8.21h-5.92v8.21h-1.66v-21.67c3.18,0,6.36,0,9.53,0
				c4.7,0,7.1,3.37,7.12,6.73c0.04,3.53-2.29,6.63-7.03,6.63L528.46,227.22z M512.84,217.42h7.68c3.79,0,5.47-2.13,5.49-5.17
				c0.04-2.53-1.7-5.17-5.29-5.17h-7.87V217.42z"/>
			<path id="XMLID_250_" class="st0" d="M531.22,228.42h-5.49l-7.5-8.2h-4.18v8.2h-4.08v-24.1h10.74c5.41,0,8.3,4,8.34,7.96
				c0.02,2.18-0.75,4.14-2.15,5.56c-0.95,0.97-2.18,1.65-3.6,2L531.22,228.42z M514.05,216.21h6.46c2.87,0,4.26-1.29,4.28-3.95
				c0.03-1.1-0.37-2.13-1.08-2.83c-0.74-0.75-1.74-1.13-3-1.13h-6.66V216.21z"/>
		</g>
		<g id="XMLID_242_">
			<path id="XMLID_246_" class="st0" d="M552.94,205.55v13.46c0,11.33-16.6,11.37-16.6,0v-13.46h1.65v13.46
				c0,9.32,13.33,9.29,13.33,0v-13.46H552.94z M544.87,203.22l2.84-3.82v-0.03h-2.01l-2.31,3.7v0.15H544.87z"/>
			<path id="XMLID_243_" class="st0" d="M544.65,228.73c-4.73,0-9.51-3.33-9.51-9.72v-14.69h4.05v14.69c0,3.97,2.74,5.77,5.46,5.77
				c2.62,0,5.45-1.81,5.45-5.77v-14.69h4.06v14.69C554.16,225.4,549.37,228.73,544.65,228.73z M545.47,204.42h-3.3v-1.56l0.18-0.41
				l2.68-4.29h3.91v1.61l-0.24,0.35L545.47,204.42z"/>
		</g>
	</g>
	<g id="XMLID_225_">
		<path id="XMLID_240_" class="st1" d="M538.96,141.3l-0.44-0.09c-7.12-1.34-9.16-2.25-9.16-4.04c0-4.49,8.08-4.57,8.41-4.57
			c4.12,0.08,7.07,0.69,8.95,3.74l1.74,2.87l2.9-1.72l2.46-1.49l3.1-1.85l-2.01-3.03c-4.79-7.23-11.07-8.26-17.13-8.26
			c-2.91,0-10.17,0.54-14.76,5.24c-2.36,2.45-3.56,5.63-3.5,9.25c0,10.06,9.95,12.01,17.21,13.46c6.98,1.34,10.1,2.4,10.08,5.02
			c0,4.46-6.32,4.94-9.03,4.94c-3.71,0-8.56-1.85-10.29-5.27l-1.52-3.05l-3.05,1.54l-2.7,1.34l-3.05,1.55l1.55,3.09
			c3.85,7.71,12.37,10.46,19.05,10.46c11.58,0,18.81-5.57,18.89-14.47C556.65,144.74,546.41,142.74,538.96,141.3z"/>
		<polygon id="XMLID_239_" class="st1" points="484.04,159.97 484.04,151.31 503.51,151.31 506.9,151.31 506.9,147.87 506.9,145.11 
			506.9,141.67 503.51,141.67 484.04,141.67 484.04,133.21 504.61,133.21 508.02,133.21 508.02,129.76 508.02,126.89 508.02,123.44 
			504.61,123.44 477.68,123.44 474.26,123.44 474.26,126.89 474.26,166.36 474.26,169.81 477.68,169.81 505.31,169.81 
			508.71,169.81 508.71,166.36 508.71,163.41 508.71,159.97 505.31,159.97 		"/>
		<polygon id="XMLID_238_" class="st1" points="454.86,123.44 451.44,123.44 451.44,126.89 451.44,149.84 431.19,124.72 
			430.18,123.44 428.57,123.44 427.27,123.44 423.86,123.44 423.86,126.89 423.86,166.36 423.86,169.81 427.27,169.81 430.3,169.81 
			433.7,169.81 433.7,166.36 433.7,143.43 453.99,168.53 455.01,169.81 456.63,169.81 457.81,169.81 461.22,169.81 461.22,166.36 
			461.22,126.89 461.22,123.44 457.81,123.44 		"/>
		<path id="XMLID_235_" class="st1" d="M389.22,122.83c-15.87,0-23.11,12.3-23.11,23.76c0,16.42,11.96,23.89,23.11,23.89
			c11.07,0,23.02-7.41,23.11-23.78c0.04-6.88-2.31-13.06-6.62-17.4C401.58,125.05,395.86,122.83,389.22,122.83z M389.22,160.77
			c-9.14,0-13.28-7.12-13.33-14.16c-0.04-4.26,1.32-7.99,3.78-10.51c2.34-2.36,5.56-3.56,9.55-3.56c9.87,0,13.39,7.6,13.39,14.09
			C402.61,153.68,398.48,160.77,389.22,160.77z"/>
		<polygon id="XMLID_234_" class="st1" points="347.31,123.44 343.9,123.44 343.9,126.89 343.9,166.36 343.9,169.81 347.31,169.81 
			350.26,169.81 353.67,169.81 353.67,166.36 353.67,126.89 353.67,123.44 350.26,123.44 		"/>
		<path id="XMLID_233_" class="st1" d="M314.77,132.59c3.75,0,7.22,1.42,9.76,4.01l2.26,2.25l2.38-2.08l2.07-1.79l2.77-2.45
			l-2.59-2.62c-4.35-4.41-10.41-6.93-16.65-6.93c-6.83,0-12.69,2.29-16.94,6.64c-4.3,4.41-6.62,10.53-6.54,17.28
			c0.06,13.73,9.73,23.36,23.49,23.36c6.24,0,12.31-2.52,16.65-6.92l2.47-2.5l-2.53-2.44l-2.01-1.91l-2.38-2.29l-2.35,2.34
			c-2.56,2.55-6.16,4.02-9.84,4.02c-10.03,0-13.69-7.15-13.76-13.86c-0.04-4.18,1.32-7.89,3.78-10.38
			C307.21,133.85,310.59,132.59,314.77,132.59z"/>
		<path id="XMLID_229_" class="st1" d="M268.51,125.48l-0.91-2.04h-2.2h-3.3h-2.21l-0.91,2.04l-17.52,39.48l-1.86,4.2l-4.69-5.14
			l-9.58-10.51c1.98-0.77,3.71-1.88,5.15-3.37c2.74-2.79,4.25-6.7,4.23-11c-0.09-7.8-5.68-15.71-16.26-15.71h-17.2h-3.41v3.45v39.47
			v3.45h3.41h3.03h3.42v-3.45v-11.48h5.72l12.51,13.79l1.01,1.14h1.5h3.97h6.88h0.89h4.36h3.26h2.2l0.91-2.04l3.35-7.66h18.9
			l3.39,7.66l0.91,2.04h2.21h3.22h5.28l-2.16-4.84L268.51,125.48z M207.71,133.17h10.75c1.93,0,3.46,0.55,4.52,1.65
			c1.05,1.08,1.64,2.62,1.62,4.27c-0.05,4.16-2.05,6-6.48,6h-10.41V133.17z M268.96,150.39h-10.5l5.25-12.02L268.96,150.39z"/>
		<path id="XMLID_228_" class="st1" d="M167.72,132.53c3.81,0,7.61,1.52,10.18,4.1l2.53,2.51l2.38-2.66l1.75-1.92l2.2-2.45
			l-2.33-2.33c-4.48-4.44-10.4-6.92-16.7-6.92c-6.73,0-12.8,2.4-17.02,6.71c-4.31,4.34-6.55,10.27-6.51,17.2
			c0,13.86,9.69,23.55,23.54,23.55c6.55,0,12.33-2.49,17.18-7.38l0.97-1v-1.45v-14.77v-3.45h-3.4h-2.04h-14.39h-3.43v3.45v2.65v3.45
			h3.43h10.18v6c-2.39,1.77-5.34,2.73-8.49,2.73c-10.19,0-13.82-7.18-13.82-13.86c-0.03-4.15,1.34-7.84,3.86-10.38
			C160.2,133.85,163.64,132.53,167.72,132.53z"/>
		<polygon id="XMLID_227_" class="st1" points="126.83,123.44 123.42,123.44 123.42,126.89 123.42,166.36 123.42,169.81 
			126.83,169.81 129.79,169.81 133.2,169.81 133.2,166.36 133.2,126.89 133.2,123.44 129.79,123.44 		"/>
		<polygon id="XMLID_226_" class="st1" points="103.34,123.44 101.48,123.44 100.48,125.02 88.54,143.59 76.44,125.02 75.43,123.44 
			73.6,123.44 70.02,123.44 66.61,123.44 66.61,126.89 66.61,166.36 66.61,169.81 70.02,169.81 73.03,169.81 76.44,169.81 
			76.44,166.36 76.44,142.79 85.26,156.29 86.27,157.86 88.11,157.86 89.1,157.86 90.95,157.86 91.97,156.29 100.66,142.86 
			100.66,166.36 100.66,169.81 104.07,169.81 107.02,169.81 110.43,169.81 110.43,166.36 110.43,126.89 110.43,123.44 
			107.02,123.44 		"/>
	</g>
	<g id="XMLID_217_">
		<path id="XMLID_224_" class="st1" d="M671.93,90.55c6.61,0,12-5.38,12-11.99c0-6.63-5.39-12-12-12c-6.62,0-11.99,5.37-11.99,12
			C659.93,85.17,665.31,90.55,671.93,90.55z"/>
		<path id="XMLID_223_" class="st1" d="M646.2,91.98C645.93,92.72,646.2,91.98,646.2,91.98L646.2,91.98z"/>
		<path id="XMLID_222_" class="st1" d="M697.08,91.98c0.01,0.03,0.01,0.03,0.01,0.05C697.09,92.01,697.08,91.98,697.08,91.98z"/>
		<path id="XMLID_221_" class="st1" d="M710.41,128.83l-13.33-36.86c-0.36-0.97-1-1.9-1.63-2.35c-0.35-0.32-1.41-0.81-2.39-0.81
			h-0.09h-3.62c-0.04,0-0.09,0-0.14,0c-1.1,0-2.08,0.33-2.79,0.83c-0.61,0.41-1.37,1.39-1.82,2.33l-11.35,31.22
			c0,0-0.48,1.18-1.62,1.32c-1.13-0.14-1.6-1.32-1.6-1.32l-11.37-31.22c-0.44-0.95-1.22-1.92-1.81-2.33c-0.7-0.5-1.68-0.83-2.8-0.83
			c-0.04,0-0.08,0-0.11,0h-3.63h-0.08c-1.01,0-2.03,0.49-2.41,0.81c-0.63,0.45-1.27,1.39-1.62,2.35l-13.33,36.86
			c-0.4,1.22-0.27,2.31,0.57,3.22c1.01,0.91,1.73,1.15,2.66,1.29c3.99,0,6.63-0.01,6.63-0.01s1.68,0.11,2.8-0.53
			c0.69-0.44,1.3-1.09,1.63-1.95c0.04-0.09,0.05-0.14,0.05-0.14s3.7-10.24,5.29-14.7l12.09,32.83c2.33,4.69,4.57,5.14,6.65,5.17l0,0
			c0.03,0,0.06,0,0.09,0.02c0.03,0,0.03,0,0.05-0.02l0,0l0,0l0,0c0.02,0,0.04,0,0.04,0c0.04,0,0.09,0,0.13,0l0,0
			c0.02,0,0.07,0,0.09,0c0.04,0,0.07,0,0.1,0l0,0c0.04,0,0.09,0,0.14,0c0,0,0.01,0,0.02,0l0,0l0,0l0,0
			c0.03,0.02,0.04,0.02,0.07,0.02c0.02-0.02,0.05-0.02,0.08-0.02l0,0c2.08-0.03,4.33-0.5,6.66-5.17l12.09-32.83
			c1.58,4.45,5.28,14.7,5.28,14.7s0.01,0.05,0.05,0.14c0.33,0.86,0.94,1.51,1.64,1.95c1.12,0.63,2.79,0.53,2.79,0.53
			s2.64,0.01,6.63,0.01c0.92-0.14,1.66-0.38,2.67-1.29C710.69,131.15,710.81,130.05,710.41,128.83z"/>
		<path id="XMLID_220_" class="st1" d="M697.09,92.03c0.01,0.05,0.04,0.11,0.06,0.16C697.14,92.14,697.13,92.09,697.09,92.03z"/>
		<path id="XMLID_219_" class="st1" d="M697.18,92.23C697.2,92.32,697.21,92.35,697.18,92.23L697.18,92.23z"/>
		<path id="XMLID_218_" class="st1" d="M697.15,92.18c0,0.01,0,0.03,0.03,0.05C697.15,92.21,697.15,92.19,697.15,92.18z"/>
	</g>
	<g id="XMLID_209_">
		<path id="XMLID_216_" class="st2" d="M671.8,249.61c-6.64,0-12,5.38-12,11.99c0,6.63,5.36,11.99,12,11.99
			c6.62,0,11.97-5.36,11.97-11.99C683.77,255,678.42,249.61,671.8,249.61z"/>
		<path id="XMLID_215_" class="st2" d="M697.52,248.18C697.77,247.45,697.52,248.18,697.52,248.18L697.52,248.18z"/>
		<path id="XMLID_214_" class="st2" d="M710.28,208.11c-1.03-0.92-1.74-1.16-2.65-1.3c-4.01,0-6.65,0.02-6.65,0.02
			s-1.68-0.13-2.78,0.53c-0.7,0.44-1.3,1.08-1.65,1.94c-0.05,0.1-0.06,0.14-0.06,0.14s-3.66,10.25-5.27,14.71l-12.08-32.83
			c-2.34-4.68-4.58-5.14-6.66-5.16c0-0.01,0-0.01,0-0.01c-0.04,0-0.05,0-0.08-0.02c-0.03,0-0.05,0-0.06,0.02l0,0l0,0l0,0
			c-0.02,0-0.03,0-0.03,0c-0.05,0-0.1,0-0.13,0l0,0c-0.04,0-0.06,0-0.11,0c-0.04,0-0.06,0-0.1,0l0,0c-0.05,0-0.09,0-0.12,0
			c-0.02,0-0.03,0-0.03,0l0,0l0,0l0,0c-0.02-0.02-0.03-0.02-0.06-0.02c-0.04,0.02-0.06,0.02-0.1,0.02c0,0,0,0,0,0.01
			c-2.08,0.02-4.33,0.48-6.65,5.16l-12.08,32.83c-1.6-4.45-5.29-14.71-5.29-14.71s-0.02-0.04-0.05-0.14
			c-0.34-0.86-0.94-1.5-1.63-1.94c-1.11-0.65-2.79-0.53-2.79-0.53s-2.65-0.02-6.65-0.02c-0.92,0.14-1.64,0.38-2.65,1.3
			c-0.85,0.9-0.97,1.99-0.58,3.22l13.33,36.85c0.36,0.97,0.99,1.89,1.63,2.35c0.36,0.33,1.4,0.82,2.4,0.82h0.1h3.6
			c0.05,0,0.09,0,0.12,0c1.12,0,2.11-0.34,2.82-0.83c0.59-0.44,1.36-1.39,1.8-2.34l11.36-31.22c0,0,0.48-1.18,1.62-1.3
			c1.14,0.12,1.61,1.3,1.61,1.3l11.35,31.22c0.46,0.96,1.22,1.9,1.82,2.34c0.69,0.49,1.69,0.83,2.8,0.83c0.06,0,0.08,0,0.12,0h3.62
			h0.09c1,0,2.03-0.49,2.4-0.82c0.65-0.46,1.26-1.39,1.63-2.35l13.32-36.85C711.24,210.1,711.12,209.01,710.28,208.11z"/>
		<path id="XMLID_213_" class="st2" d="M646.63,248.18c-0.01-0.05-0.03-0.06-0.03-0.09C646.62,248.13,646.63,248.18,646.63,248.18z"
			/>
		<path id="XMLID_212_" class="st2" d="M646.6,248.09c-0.01-0.02-0.01-0.03-0.02-0.03C646.59,248.06,646.59,248.07,646.6,248.09z"/>
		<path id="XMLID_211_" class="st2" d="M646.58,248.06c-0.01-0.08-0.03-0.13-0.05-0.16C646.56,247.93,646.57,247.99,646.58,248.06z"
			/>
		<path id="XMLID_210_" class="st2" d="M646.53,247.91C646.51,247.85,646.51,247.83,646.53,247.91L646.53,247.91z"/>
	</g>
	<g id="XMLID_201_">
		<path id="XMLID_208_" class="st0" d="M763.28,158.13c-6.63,0-12,5.34-12,11.97c0,6.63,5.37,11.99,12,11.99
			c6.6,0,11.99-5.36,11.99-11.99C775.28,163.47,769.89,158.13,763.28,158.13z"/>
		<path id="XMLID_207_" class="st0" d="M749.85,144.37c0,0-0.15-0.04-0.25-0.07C749.67,144.31,749.73,144.34,749.85,144.37z"/>
		<path id="XMLID_206_" class="st0" d="M749.59,144.3C749.47,144.23,749.52,144.27,749.59,144.3L749.59,144.3z"/>
		<path id="XMLID_205_" class="st0" d="M752.18,184.61c-0.41-0.6-1.38-1.38-2.33-1.81l-31.22-11.37c0,0-1.17-0.47-1.32-1.62
			c0.15-1.14,1.32-1.6,1.32-1.6l31.22-11.36c0.96-0.44,1.92-1.22,2.33-1.82c0.5-0.69,0.85-1.68,0.85-2.8c0-0.05,0-0.08,0-0.11v-3.62
			v-0.1c0-0.99-0.51-2.03-0.81-2.38c-0.47-0.66-1.4-1.28-2.37-1.65l-36.84-13.33c-1.25-0.39-2.32-0.26-3.25,0.59
			c-0.9,1.02-1.12,1.72-1.27,2.65c0,3.99,0.01,6.64,0.01,6.64s-0.12,1.68,0.52,2.79c0.44,0.7,1.09,1.3,1.95,1.64
			c0.1,0.04,0.16,0.06,0.16,0.06s10.23,3.67,14.69,5.27l-32.82,12.09c-4.7,2.32-5.15,4.57-5.17,6.65h-0.03c0,0.04,0,0.05,0,0.09
			c0,0.03,0,0.04,0,0.06h0.03l0,0h-0.03c0,0,0,0.02,0.03,0.03c0,0.03-0.03,0.08-0.03,0.12l0,0c0,0.04,0,0.07,0,0.1
			c0,0.05,0,0.08,0,0.1v0.01c0,0.03,0.03,0.08,0.03,0.13c-0.03,0-0.03,0.01-0.03,0.03h0.03l0,0h-0.03c0,0.02,0,0.03,0,0.05
			c0,0.04,0,0.06,0,0.09h0.03c0.02,2.09,0.47,4.34,5.17,6.66l32.82,12.09c-4.45,1.6-14.69,5.26-14.69,5.26s-0.06,0.04-0.16,0.08
			c-0.86,0.33-1.51,0.93-1.95,1.62c-0.63,1.12-0.52,2.82-0.52,2.82s-0.01,2.62-0.01,6.62c0.15,0.92,0.37,1.65,1.27,2.67
			c0.93,0.83,2,0.95,3.25,0.57l36.84-13.34c0.98-0.36,1.9-1,2.37-1.63c0.3-0.36,0.81-1.4,0.81-2.41v-0.08v-3.63
			c0-0.02,0-0.06,0-0.11C753.03,186.28,752.68,185.3,752.18,184.61z"/>
		<path id="XMLID_204_" class="st0" d="M749.79,195.28c-0.05,0.02-0.1,0.03-0.16,0.06C749.67,195.33,749.73,195.31,749.79,195.28z"
			/>
		<path id="XMLID_203_" class="st0" d="M749.85,195.26c-0.03,0.02-0.03,0.02-0.06,0.02C749.82,195.28,749.85,195.26,749.85,195.26z"
			/>
		<path id="XMLID_202_" class="st0" d="M749.63,195.34C749.45,195.41,749.53,195.37,749.63,195.34L749.63,195.34z"/>
	</g>
	<g id="XMLID_196_">
		<path id="XMLID_200_" class="st3" d="M580.72,158.15c-6.64,0-11.99,5.37-11.99,12c0,6.61,5.35,11.97,11.99,11.97
			c6.61,0,11.97-5.36,11.97-11.97C592.7,163.52,587.34,158.15,580.72,158.15z"/>
		<path id="XMLID_199_" class="st3" d="M656.17,170.69L656.17,170.69L656.17,170.69c0-0.02,0-0.02,0-0.03c0-0.05,0-0.1,0-0.13l0,0
			c0-0.03,0-0.08,0-0.11c0-0.03,0-0.06,0-0.09v-0.02c0-0.03,0-0.06,0-0.11c0-0.02,0-0.03,0-0.03l0,0l0,0l0,0
			c0.03-0.02,0.03-0.03,0.03-0.06c-0.03-0.03-0.03-0.07-0.03-0.08l0,0c-0.03-2.09-0.47-4.34-5.16-6.66l-32.82-12.09
			c4.44-1.6,14.7-5.27,14.7-5.27s0.05-0.03,0.13-0.06c0.87-0.34,1.5-0.94,1.94-1.65c0.65-1.1,0.54-2.78,0.54-2.78s0-2.65,0-6.64
			c-0.12-0.93-0.36-1.65-1.27-2.65c-0.92-0.85-1.99-0.97-3.24-0.59L594.15,145c-0.97,0.35-1.89,0.98-2.35,1.63
			c-0.33,0.36-0.81,1.41-0.81,2.39v0.1v3.6c0,0.05,0,0.08,0,0.13c0,1.12,0.33,2.11,0.83,2.8c0.41,0.6,1.38,1.37,2.33,1.82
			l31.21,11.36c0,0,1.19,0.46,1.33,1.6c-0.14,1.14-1.33,1.61-1.33,1.61l-31.21,11.37c-0.96,0.43-1.92,1.22-2.33,1.81
			c-0.5,0.69-0.83,1.67-0.83,2.81c0,0.05,0,0.08,0,0.1v3.63v0.09c0,0.99,0.48,2.04,0.81,2.41c0.46,0.64,1.39,1.26,2.35,1.61
			l36.84,13.35c1.25,0.38,2.32,0.26,3.24-0.59c0.91-1.01,1.15-1.73,1.27-2.67c0-3.98,0-6.62,0-6.62s0.12-1.68-0.54-2.78
			c-0.44-0.7-1.07-1.31-1.94-1.66c-0.08-0.03-0.13-0.05-0.13-0.05s-10.25-3.69-14.7-5.27l32.82-12.09c4.68-2.32,5.13-4.57,5.16-6.66
			l0,0c0-0.03,0-0.05,0.03-0.1C656.2,170.72,656.2,170.71,656.17,170.69L656.17,170.69z"/>
		<path id="XMLID_198_" class="st3" d="M594.15,195.86C594.88,196.14,594.15,195.86,594.15,195.86L594.15,195.86z"/>
		<path id="XMLID_197_" class="st3" d="M594.15,145C594.15,145,594.88,144.73,594.15,145L594.15,145z"/>
	</g>
	<g id="XMLID_7_">
		<path id="XMLID_194_" class="st1" d="M268.07,180.24c-1.23-1.97-3.18-2.27-5.09-2.28c-1.96,0-5.1,0.72-5.1,3.42
			c0,2.14,2.3,2.64,5.15,3.16c3.24,0.64,6.6,1.19,6.6,4.82c-0.03,3.79-3.85,4.71-6.65,4.71c-2.63,0-5.6-1.07-6.89-3.65l1.15-0.58
			c1.03,2.05,3.67,3.05,5.74,3.05c2.06,0,5.35-0.57,5.35-3.55c0.02-2.53-2.76-3.08-5.53-3.6c-3.08-0.6-6.23-1.22-6.23-4.32
			c-0.07-3.54,3.63-4.66,6.41-4.66c2.39,0,4.49,0.38,6.14,2.84L268.07,180.24z"/>
		<path id="XMLID_192_" class="st1" d="M282.21,193.82v-2.15c-0.91,1.63-2.57,2.31-4.22,2.33c-3.16,0-5.36-1.94-5.36-5.23v-6.85
			h1.18v6.82c0,2.7,1.66,4.13,4.23,4.1c2.44-0.02,4.15-1.88,4.15-4.32v-6.6h1.18v11.89H282.21z"/>
		<path id="XMLID_189_" class="st1" d="M286.46,198.77v-16.82h1.16v2.81c0.93-1.8,2.83-2.99,5.14-2.99
			c3.21,0.13,5.76,2.29,5.76,6.11c0,3.98-2.69,6.14-6.03,6.14c-2.02,0-3.9-0.99-4.9-2.95v7.69H286.46z M297.35,187.89
			c0-3.34-2.17-4.98-4.85-4.98c-2.76,0-4.79,2.08-4.79,4.99c0,2.91,2.08,5,4.79,5C295.18,192.9,297.35,191.22,297.35,187.89z"/>
		<path id="XMLID_186_" class="st1" d="M300.73,187.89c0-3.57,2.69-6.12,6.02-6.12c3.35,0,6.33,2.05,5.87,6.67h-10.68
			c0.23,2.78,2.37,4.39,4.81,4.39c1.56,0,3.4-0.63,4.29-1.8l0.84,0.66c-1.15,1.51-3.22,2.29-5.13,2.29
			C303.42,193.99,300.73,191.65,300.73,187.89z M311.56,187.4c-0.02-2.93-1.93-4.56-4.8-4.56c-2.44,0-4.56,1.66-4.81,4.56H311.56z"
			/>
		<path id="XMLID_184_" class="st1" d="M316.77,181.95l0.05,2.12c0.74-1.62,2.43-2.25,3.95-2.25c0.89-0.02,1.75,0.21,2.54,0.7
			l-0.53,0.96c-0.62-0.38-1.32-0.55-2.01-0.55c-2.22,0.03-3.93,1.8-3.93,3.96v6.92h-1.17v-11.87H316.77z"/>
		<path id="XMLID_181_" class="st1" d="M326.65,178.08c0,1.25-1.9,1.25-1.9,0C324.75,176.82,326.65,176.82,326.65,178.08z
			 M325.09,181.9v11.92h1.17V181.9H325.09z"/>
		<path id="XMLID_179_" class="st1" d="M330.78,181.95v2.12c0.91-1.63,2.56-2.3,4.22-2.34c3.17,0,5.36,1.96,5.36,5.25v6.85h-1.18
			v-6.84c0-2.69-1.66-4.13-4.23-4.1c-2.45,0.02-4.15,1.87-4.15,4.32v6.62h-1.17v-11.87H330.78z"/>
		<path id="XMLID_177_" class="st1" d="M345.64,178.36v3.58h4.04v0.99h-4.04v7.23c0,1.61,0.34,2.73,2.19,2.73
			c0.59,0,1.23-0.19,1.83-0.48l0.41,0.96c-0.74,0.36-1.48,0.62-2.24,0.62c-2.52,0-3.33-1.49-3.33-3.83v-7.23h-2.52v-0.99h2.52v-3.46
			L345.64,178.36z"/>
		<path id="XMLID_174_" class="st1" d="M351.72,187.89c0-3.57,2.69-6.12,6.04-6.12c3.32,0,6.31,2.05,5.85,6.67h-10.68
			c0.23,2.78,2.37,4.39,4.83,4.39c1.55,0,3.38-0.63,4.26-1.8l0.85,0.66c-1.15,1.51-3.22,2.29-5.11,2.29
			C354.41,193.99,351.72,191.65,351.72,187.89z M362.54,187.4c-0.02-2.93-1.93-4.56-4.78-4.56c-2.46,0-4.57,1.66-4.83,4.56H362.54z"
			/>
		<path id="XMLID_172_" class="st1" d="M367.81,181.95v2.12c0.92-1.63,2.59-2.3,4.23-2.34c3.17,0,5.36,1.96,5.36,5.25v6.85h-1.17
			v-6.84c0-2.69-1.66-4.13-4.23-4.1c-2.46,0.02-4.16,1.87-4.16,4.32v6.62h-1.17v-11.87H367.81z"/>
		<path id="XMLID_169_" class="st1" d="M391.86,177.01v16.82h-1.16v-2.62c-0.98,1.8-2.92,2.8-4.94,2.8c-3.32,0-5.93-2.19-5.93-6.12
			c0-3.93,2.64-6.12,5.96-6.12c2.03,0,3.96,0.86,4.91,2.78v-7.54H391.86z M380.98,187.89c0,3.28,2.18,4.96,4.84,4.96
			c2.78,0,4.85-2.04,4.85-4.99c0-2.96-2.12-4.97-4.85-4.97C383.16,182.89,380.98,184.55,380.98,187.89z"/>
		<path id="XMLID_166_" class="st1" d="M394.83,187.89c0-3.57,2.7-6.12,6.03-6.12c3.35,0,6.33,2.05,5.87,6.67h-10.69
			c0.24,2.78,2.39,4.39,4.82,4.39c1.57,0,3.39-0.63,4.29-1.8l0.83,0.66c-1.15,1.51-3.21,2.29-5.12,2.29
			C397.52,193.99,394.83,191.65,394.83,187.89z M405.68,187.4c-0.03-2.93-1.95-4.56-4.82-4.56c-2.43,0-4.56,1.66-4.82,4.56H405.68z"
			/>
		<path id="XMLID_164_" class="st1" d="M410.92,181.95v2.12c0.92-1.63,2.57-2.3,4.23-2.34c3.17,0,5.35,1.96,5.35,5.25v6.85h-1.17
			v-6.84c0-2.69-1.65-4.13-4.23-4.1c-2.45,0.02-4.16,1.87-4.16,4.32v6.62h-1.17v-11.87H410.92z"/>
		<path id="XMLID_162_" class="st1" d="M433.31,192.16c-1.21,1.19-2.76,1.76-4.33,1.76c-3.34,0-6.1-2.29-6.1-6.04
			c0-3.76,2.67-6.06,6.1-6.06c1.56,0,3.12,0.62,4.33,1.79l-0.78,0.75c-0.96-0.97-2.28-1.43-3.54-1.43c-2.7,0-4.95,1.75-4.95,4.95
			c0,3.19,2.26,4.94,4.95,4.94c1.27,0,2.56-0.5,3.53-1.47L433.31,192.16z"/>
		<path id="XMLID_159_" class="st1" d="M437.27,178.08c0,1.25-1.88,1.25-1.88,0C435.38,176.82,437.27,176.82,437.27,178.08z
			 M435.71,181.9v11.92h1.17V181.9H435.71z"/>
		<path id="XMLID_156_" class="st1" d="M451.65,181.95c0,3.95,0,7.9,0,11.87h-1.17v-2.53c-1.16,1.85-2.92,2.71-4.85,2.71
			c-3.31,0-6.03-2.5-6.03-6.12c0-3.63,2.71-6.08,6.03-6.08c1.93,0,3.87,0.88,4.85,2.74v-2.6H451.65z M440.77,187.89
			c0,2.98,2.17,4.96,4.85,4.96c6.61,0,6.61-9.91,0-9.91C442.94,182.94,440.77,184.9,440.77,187.89z"/>
		<path id="XMLID_154_" class="st1" d="M462.24,177.01l11.32,13.91v-13.91h1.27v16.82h-0.5l-11.34-13.89v13.89h-1.29v-16.82H462.24z
			"/>
		<path id="XMLID_151_" class="st1" d="M489.78,181.95c0,3.95,0,7.9,0,11.87h-1.19v-2.53c-1.14,1.85-2.92,2.71-4.84,2.71
			c-3.31,0-6.04-2.5-6.04-6.12c0-3.63,2.72-6.08,6.04-6.08c1.92,0,3.87,0.88,4.84,2.74v-2.6H489.78z M478.89,187.89
			c0,2.98,2.16,4.96,4.85,4.96c6.6,0,6.6-9.91,0-9.91C481.05,182.94,478.89,184.9,478.89,187.89z"/>
		<path id="XMLID_149_" class="st1" d="M502.96,192.16c-1.21,1.19-2.77,1.76-4.33,1.76c-3.35,0-6.1-2.29-6.1-6.04
			c0-3.76,2.66-6.06,6.1-6.06c1.55,0,3.12,0.62,4.33,1.79l-0.77,0.75c-0.96-0.97-2.28-1.43-3.55-1.43c-2.7,0-4.96,1.75-4.96,4.95
			c0,3.19,2.27,4.94,4.96,4.94c1.27,0,2.56-0.5,3.52-1.47L502.96,192.16z"/>
		<path id="XMLID_146_" class="st1" d="M506.93,178.08c0,1.25-1.89,1.25-1.89,0C505.03,176.82,506.93,176.82,506.93,178.08z
			 M505.35,181.9v11.92h1.17V181.9H505.35z"/>
		<path id="XMLID_143_" class="st1" d="M509.61,187.9c0-3.77,2.68-6.17,6.03-6.17c3.34,0,6.02,2.4,6.02,6.17
			c0,3.78-2.69,6.09-6.02,6.09C512.29,193.99,509.61,191.68,509.61,187.9z M520.51,187.9c0-3.07-2.19-5.06-4.87-5.06
			c-2.7,0-4.88,1.99-4.88,5.06c0,3.08,2.19,4.93,4.88,4.93C518.32,192.83,520.51,190.97,520.51,187.9z"/>
		<path id="XMLID_141_" class="st1" d="M525.54,181.95v2.12c0.91-1.63,2.57-2.3,4.23-2.34c3.15,0,5.34,1.96,5.34,5.25v6.85h-1.17
			v-6.84c0-2.69-1.67-4.13-4.23-4.1c-2.45,0.02-4.15,1.87-4.15,4.32v6.62h-1.18v-11.87H525.54z"/>
		<path id="XMLID_138_" class="st1" d="M549.59,181.95c0,3.95,0,7.9,0,11.87h-1.17v-2.53c-1.15,1.85-2.94,2.71-4.85,2.71
			c-3.32,0-6.03-2.5-6.03-6.12c0-3.63,2.7-6.08,6.03-6.08c1.91,0,3.87,0.88,4.85,2.74v-2.6H549.59z M538.71,187.89
			c0,2.98,2.16,4.96,4.85,4.96c6.61,0,6.61-9.91,0-9.91C540.87,182.94,538.71,184.9,538.71,187.89z"/>
		<path id="XMLID_14_" class="st1" d="M553.97,177.01v16.82h-1.17v-16.82H553.97z"/>
	</g>
</g>
</svg>
